<?xml version="1.0" encoding="UTF-8"?>
<svg xmlns="http://www.w3.org/2000/svg" viewBox="0 0 250 284" width="250" height="284">
<path d="M222.25 117.22C219.25 115.11 215.88 110.66 213.5 107.74C212.17 106.12 210.46 104.91 209.93 102.74C208.82 98.14 208.92 93.19 207.71 88.55C205.34 79.47 201.22 71.17 196.7 63.03C193.05 56.45 184.14 47.13 178.02 42.71C176.77 41.81 175.73 40.65 174.47 39.77C164.5 32.73 152.47 27.51 140.45 25.29C139.4 25.1 138.31 25.28 137.25 25.14C135.74 24.95 134.27 24.48 132.77 24.28C130.18 23.94 127.35 24.24 124.75 24.24C103.09 24.26 81.38 32.86 65.97 48.23C56.28 57.89 48.13 70.29 44.29 83.55C43.01 87.97 42.18 92.52 41.26 97.03C40.81 99.22 41.38 101.76 40.59 103.82C39.35 107.06 35.66 109.15 33.5 111.74C32.09 113.43 29.64 116.38 27.75 117.11C26.04 112.27 27.02 104.11 27.74 99.01C28.03 96.95 27.84 94.75 28.32 92.72C31.13 80.78 34.48 69.76 40.91 59.16C42.23 56.99 43.32 54.63 44.78 52.55C64.46 24.43 99 8.07 133.25 11.03C146.83 12.21 158.24 15.99 170.34 21.89C180.26 26.72 190.32 33.76 197.3 42.45C199 44.57 201.02 46.41 202.7 48.54C209.02 56.54 214.25 65.93 217.72 75.51C219.4 80.13 220.47 84.99 221.68 89.72C222.15 91.53 221.92 93.44 222.3 95.27C223.27 99.97 224.01 108.09 223.3 112.75C223.03 114.53 223.39 115.77 222.25 117.22ZM87.95 122.24C87.27 121.48 86.59 120.73 85.91 119.98C85.72 118.25 84.61 117.4 83.25 116.39C83.16 116.58 83.07 116.78 82.98 116.97C79.8 113.51 76.62 110.05 73.44 106.58C73.59 106.47 73.74 106.36 73.89 106.25C72.67 104.83 71.46 103.4 70.25 101.98C70.19 102.3 70.12 102.63 70.06 102.96C69.35 102.17 68.64 101.38 67.93 100.6C68.23 100.48 68.52 100.37 68.81 100.25C67.85 99.53 66.88 98.8 65.92 98.08C65.66 95.51 62.94 94.55 62.06 92.25C64.71 91.27 68.11 92.88 70.9 93.25C79.85 94.44 88.76 96.06 97.65 97.69C100.93 98.29 106.08 98.07 108.66 100.25C104.74 105.87 99.27 110.42 94.78 115.55C92.73 117.89 90.98 121.13 87.95 122.24ZM159.43 122.04C158.08 120.57 156.74 119.11 155.39 117.65C155.56 117.52 155.74 117.38 155.92 117.25C154.53 115.71 153.14 114.17 151.75 112.63C151.49 112.63 151.24 112.62 150.98 112.62C150.8 112.46 150.62 112.3 150.44 112.15C150.62 112.02 150.8 111.88 150.98 111.75C150.23 110.9 149.49 110.06 148.75 109.21C148.51 109.28 148.27 109.35 148.03 109.43C147.47 108.83 146.91 108.22 146.35 107.62C146.15 107.05 145.95 106.47 145.75 105.9C145.49 105.95 145.23 106 144.97 106.05C144.46 105.56 143.95 105.07 143.44 104.59C143.46 104.14 143.48 103.7 143.5 103.25C142.01 101.86 140.32 100.73 139.94 98.75C142.1 97.85 144.45 98 146.75 97.59C155.88 95.99 165.1 95.16 174.25 93.69C177.61 93.16 184.66 91.25 187.6 92.25C179.04 101.92 170.48 111.58 161.92 121.25C161.09 121.51 160.26 121.77 159.43 122.04ZM59.25 130.47C60.99 128.84 63.65 128.91 65.93 129.54C65.93 131.5 65.93 133.45 65.93 135.4C63.58 135.96 61.53 136.05 59.75 134.38C58.02 136.18 55.42 136.02 53.07 135.4C53.07 133.47 53.07 131.53 53.07 129.6C55.24 129.03 57.92 128.65 59.25 130.47ZM196.93 129.34C196.93 131.31 196.93 133.28 196.93 135.25C195.28 135.72 193.5 135.98 191.75 135.65C191.27 135.57 190.87 135.21 190.37 135.24C188.07 135.39 186.43 135.93 184.07 135.25C184.07 133.28 184.07 131.31 184.07 129.34C188.36 129.34 192.64 129.34 196.93 129.34ZM43.25 132.13C44.87 134.13 46.02 139.18 46.92 141.78C48.4 146.05 51.48 149.67 53.23 153.75C52.78 154.95 46.65 161.82 45.46 162.7C44.91 163.1 44.37 163.09 43.75 163.25C42.27 162.02 41.55 160.26 40.68 158.56C38.03 153.35 34.12 148.12 33.05 142.25C34.11 139.94 40.93 133.13 43.25 132.13ZM207.25 133.06C210.16 134.97 215.46 141.1 216.96 144.25C213.86 151.08 211.1 159.19 205.75 164.66C203.41 163.51 198.37 156.78 197.26 154.25C198.11 151.9 199.76 149.89 200.88 147.65C202.2 145.01 203.6 142.15 204.67 139.41C205.54 137.16 205.36 134.79 207.25 133.06ZM123.96 134.01C123.96 138 123.96 142 123.96 145.99C121.04 146.42 113.45 147.01 111.26 145.25C111.49 138.54 117.41 133.69 123.96 134.01ZM138.75 145.99C135.21 146.76 130.01 146.7 126.54 145.75C126.54 141.92 126.54 138.08 126.54 134.25C133.27 133.11 139.42 139.36 138.75 145.99ZM59.25 140C59.69 139.34 59.62 138.16 60.23 137.49C61.11 136.52 64.79 137.23 65.93 137.54C65.93 139.51 65.93 141.49 65.93 143.46C64.59 143.48 63.2 143.93 61.87 143.75C61.15 143.66 60.5 143.16 59.77 143.2C57.21 143.33 55.74 144.35 53.08 142.99C53.08 141.18 53.08 139.36 53.08 137.54C56.03 136.72 59.17 136.19 59.25 140ZM196.4 137.25C197.33 139.05 197.14 141.42 196.75 143.41C194.57 144.43 192.44 143.5 190.24 143.43C188.25 143.36 186.53 144.18 184.55 143.25C183.68 141.51 183.7 138.99 184.6 137.25C186.62 137 188.44 137.62 190.37 137.76C191.82 137.86 194.27 136.99 196.4 137.25ZM123.41 148.13C124.52 150.65 124.46 158.4 123.41 160.96C119.47 160.96 115.53 160.96 111.59 160.96C110.87 158.03 110.68 150.8 111.98 148.13C115.79 148.13 119.6 148.13 123.41 148.13ZM138.96 148.54C138.96 152.68 138.96 156.83 138.96 160.97C134.84 160.97 130.72 160.97 126.6 160.97C126.45 157.67 125.64 150.91 127.41 148.25C130.89 147.81 135.57 147.58 138.96 148.54ZM202 169.75C201.12 172.1 198.98 173.78 197.31 175.55C189.86 183.49 181.62 190.21 172.01 195.29C165.16 198.91 158.12 201.74 150.74 204.06C146.51 205.38 142.07 205.61 137.75 206.3C114.05 210.09 88.26 203.27 68.97 189.3C62.24 184.42 52.59 176.92 48.37 169.75C49.61 168.84 51.13 169.09 52.75 169.12C56.16 169.19 63.14 168.15 66.01 169.72C68.1 170.87 69.68 173.2 71.55 174.7C74.45 177.02 77.5 179.13 80.54 181.23C83.06 182.98 86.04 184.23 88.82 185.43C92.08 186.83 95.16 188.64 98.56 189.7C107.07 192.37 115.85 193.58 124.75 193.91C139.79 194.46 160.17 188.66 172.47 179.71C175.06 177.83 178.11 175.88 180.45 173.69C181.78 172.44 182.97 170.82 184.54 169.77C186.95 168.18 194.67 169.14 197.75 169.09C199.34 169.06 200.69 168.82 202 169.75ZM167.25 252.06C168.57 252.95 168.82 253.24 168.75 254.84C168.25 255.15 167.75 255.46 167.25 255.77C166.59 255.27 165.92 254.76 165.26 254.25C165.77 253.05 166.07 252.63 167.25 252.06ZM205.21 252.59C205.21 253.64 205.21 254.7 205.21 255.75C203.22 256.73 201.24 257.71 199.25 258.69C199.39 259.88 202.54 264.99 203.57 265.67C205.03 266.63 207.2 266.34 208.67 265.75C202.27 260.47 211.73 253.3 214.81 260.37C215.23 261.33 215.25 262.71 215.27 263.75C215.43 271.76 206.67 271.28 201.25 269.05C198.5 270.3 190.5 271.78 189.14 267.65C188.39 265.34 188.77 257.55 188.78 254.75C189.91 253.94 190.84 253.71 192.21 253.75C193.99 257.55 191.87 262.21 193.25 266.07C195.06 266.4 196.75 266.38 198.47 265.75C199.02 262.16 194.6 261.74 195.17 256.75C197.45 254.52 202.04 252.68 205.21 252.59ZM108.25 252.91C108.75 252.92 109.25 252.93 109.75 252.94C110.14 254.08 110.08 254.05 109.75 255.18C109.12 255.04 108.48 254.89 107.85 254.75C107.98 254.14 108.12 253.53 108.25 252.91ZM213.75 253.98C213.61 257.65 211.62 254.91 210.31 255.06C208.8 255.23 208.79 256.44 207.25 255.02C207.39 251.35 209.38 254.09 210.69 253.94C212.2 253.77 212.21 252.56 213.75 253.98ZM90.39 253.75C92.23 257.04 90.63 262.03 91.15 265.75C92.76 266.29 93.37 266.24 95 265.75C95 264.84 95 263.92 95 263.01C95.92 262.7 96.83 262.4 97.75 262.09C98.25 263.42 98.75 264.75 99.25 266.07C101.99 265.71 101.55 264.36 102.59 262.25C103.94 262.07 104.59 262.29 105.75 263.01C105.71 264.22 105.41 264.88 105.75 266.1C107.56 265.43 107.67 264.1 108.25 262.3C109.08 262.3 109.92 262.3 110.75 262.3C110.95 264.01 110.54 265.79 111.75 266.95C114.15 265.67 112.45 263.24 112.11 261.25C112.83 260.78 113.54 260.31 114.25 259.84C118.61 264.12 116.56 273.4 108.75 269.36C105.93 270.73 105.44 269.71 102.83 269.73C101.44 269.74 100.19 270.39 98.75 270.22C97.95 270.13 97.1 269.54 96.33 269.59C93.88 269.77 90.26 271.54 88.36 268.88C86.94 266.9 86.75 257.16 87.25 254.59C88.39 253.96 89.12 253.53 90.39 253.75ZM82.25 254.75C82.71 255.25 83.16 255.75 83.62 256.25C82.92 257.59 82.73 257.81 81.25 258.06C80.85 257.46 80.45 256.85 80.05 256.25C80.67 255.15 81.01 255.08 82.25 254.75ZM107.75 255.82C108.64 257.56 107.95 258.23 106.12 258.25C106.06 257.58 106 256.92 105.94 256.25C106.54 256.11 107.15 255.96 107.75 255.82ZM110.25 255.85C110.75 255.87 111.25 255.89 111.75 255.91C112.22 257.42 112.15 257.77 110.75 258.63C110.22 258.17 109.7 257.71 109.17 257.25C109.53 256.78 109.89 256.31 110.25 255.85ZM44.75 256.39C45.45 257.17 46.14 257.96 46.84 258.75C45.89 259.63 45.51 259.86 44.25 260.06C43.85 259.46 43.44 258.85 43.04 258.25C43.61 257.63 44.18 257.01 44.75 256.39ZM162.75 270.26C159.74 273.46 158.11 276.63 153.25 277.09C152.87 276.14 152.48 275.2 152.1 274.25C153.9 272.72 156.53 272.85 157.76 270.75C156.38 270.05 154.53 270.14 153.52 268.71C151.76 266.23 152.74 261.65 155.55 260.31C158.62 258.84 160.85 261.77 161.88 264.34C162.08 264.84 161.96 265.44 162.39 265.84C162.98 266.37 164.04 266.24 164.75 266.18C164.63 264.61 163.26 264.49 163.11 262.73C162.78 258.87 167.03 255.51 170.26 258.5C172.44 260.52 173.2 266.89 170.62 268.84C168.4 270.53 165.38 270.21 162.75 270.26ZM76.75 258.01C77.03 260.81 76.73 263.72 78.25 266.21C79.42 266.21 80.58 266.21 81.75 266.21C82.1 264.43 81.64 263.43 81.04 261.75C81.99 260.52 82.67 260.17 84.25 260.14C86.45 262.77 87.04 268.33 83.13 269.83C81.18 270.58 77.82 270.58 75.87 269.84C75.26 269.61 74.89 269.17 74.23 269.05C72.35 268.68 70.96 269.2 69.36 267.86C64.98 264.19 70.52 261.74 72.46 259.7C72.87 259.27 72.9 258.5 73.4 258.19C74.31 257.61 75.79 257.91 76.75 258.01ZM38.41 260.25C38.75 261.6 38.29 262.47 37.84 263.75C35.49 264.12 33.08 264.31 32.11 266.75C33.73 267.77 36.92 267.88 37.91 269.86C40.42 274.89 32.5 278.2 28.75 277.69C25.36 277.23 21.7 275.58 21.07 271.73C20.86 270.39 21.44 265.17 22.53 264.29C23.34 263.63 24.13 264 24.99 264.25C26.18 266.47 23.93 269.02 24.82 271.41C25.94 274.4 32.4 273.7 34.22 272.25C33.04 270.64 30.74 270.79 29.17 269.25C28.45 262.93 32.09 259.29 38.41 260.25ZM50.25 277.08C49.31 275.81 49.16 275.16 49.25 273.59C51.18 272.89 53.44 272.55 54.59 270.75C52.25 269.4 49.8 269.65 49.32 266.25C48.87 263.12 52.1 258.72 55.45 260.31C56.92 261.01 57.43 262.32 58.12 263.65C61.23 269.74 56.9 276.52 50.25 277.08ZM141.83 260.75C141.49 261.75 141.15 262.75 140.81 263.75C138.29 264.15 137.07 264.49 135.18 266.25C136.78 267.78 139.56 267.92 140.9 269.85C141.64 270.9 141.5 271.71 141.17 272.86C140.14 276.4 136.18 277.55 132.75 277.73C131.77 277.78 131.07 277.37 130.17 277.16C123.71 275.61 122.84 269.77 125.55 264.25C126.88 263.88 127.73 263.85 128.82 264.75C128.63 266.81 127.15 269.03 127.97 271.24C129.12 274.34 135.6 273.86 137.64 272.25C136 270.61 132.6 271.12 132.04 268.23C131.15 263.65 137.54 257.18 141.83 260.75ZM229.25 259.99C231.44 262.16 232.62 267.96 228.98 269.71C227.26 270.54 225.08 270.06 223.25 270.57C221.82 273.33 219.93 276.48 216.75 277.23C216 276.4 215.25 275.58 214.5 274.75C215.99 272.83 219.61 271.61 219.91 268.73C220.05 267.32 219.05 265.7 218.91 264.25C219.69 263.78 220.47 263.31 221.25 262.84C222.53 263.67 222.87 264.22 223.17 265.75C224.85 266.32 226.03 266.34 227.75 265.82C227.3 264.47 226.86 263.11 226.41 261.75C227.3 260.76 227.94 260.31 229.25 259.99ZM167.75 260.93C167.25 261.01 166.75 261.09 166.25 261.18C166.55 262.44 166.81 262.83 168.25 262.85C168.24 261.83 168.35 261.81 167.75 260.93ZM211.83 262.75C211.81 261.02 210.82 260.77 209.25 261.18C209.68 262.63 210.3 262.71 211.83 262.75ZM46.75 262.91C50.24 267.95 47.15 275.1 41.75 277.18C40.96 276.37 40.17 275.56 39.38 274.75C43.11 270.63 46.21 271.32 43.38 264.75C44.42 263.6 45.19 263.13 46.75 262.91ZM65.25 262.84C69.75 267.26 66.05 275.29 60.75 277.16C60 276.36 59.25 275.55 58.5 274.75C60.12 272.56 62.68 271.4 63.95 268.75C63.55 267.19 63.15 265.63 62.75 264.07C63.58 263.66 64.42 263.25 65.25 262.84ZM73.25 264.95C73.21 263.57 73.49 263.63 72.18 263.25C71.84 263.82 71.5 264.38 71.16 264.95C71.86 264.95 72.55 264.95 73.25 264.95ZM149.25 262.84C153.86 266.14 150.22 275.9 144.75 277.24C144 276.41 143.25 275.58 142.5 274.75C144 272.82 147.58 271.63 147.9 268.73C148.05 267.33 147.04 265.69 146.91 264.25C147.69 263.78 148.47 263.31 149.25 262.84ZM185.75 262.94C189.13 267.7 186.56 275.85 180.75 277.23C180 276.4 179.25 275.58 178.5 274.75C179.99 272.83 183.61 271.61 183.9 268.73C184.05 267.28 182.91 265.64 182.55 264.25C183.62 263.81 184.68 263.38 185.75 262.94ZM55.75 266.08C55.62 263.35 52.7 263.06 52.61 266.08C53.66 266.08 54.7 266.08 55.75 266.08ZM158.75 266.08C158.63 263.44 155.36 262.98 156 266.08C156.92 266.08 157.83 266.08 158.75 266.08ZM95.25 271.5C96.05 272.09 96.85 272.67 97.66 273.25C96.93 274.59 96.75 274.82 95.25 275.07C94.85 274.46 94.44 273.86 94.04 273.25C94.44 272.67 94.85 272.09 95.25 271.5ZM227.75 271.52C228.21 272.1 228.66 272.67 229.12 273.25C228.66 273.86 228.21 274.46 227.75 275.07C226.25 274.82 226.07 274.6 225.39 273.25C226.09 272.23 226.6 271.93 227.75 271.52Z" fill="#ffba02" fill-rule="evenodd" stroke="#ffba02" stroke-width="0.25" stroke-linejoin="round"/>
<path d="M106.14 96.75C105.77 90.12 106.03 83.39 106.06 76.75C106.08 74.24 106.51 71.23 105.96 68.77C105.37 66.08 101.03 60.44 99.47 57.75C103.68 53.31 112.91 52.08 117.42 47.75C115.9 43.92 114.38 40.08 112.86 36.25C114.86 36.02 116.66 36.76 118.37 37.85C124.39 41.68 127.16 48.93 123.84 55.62C122.56 58.19 118.02 60.52 117.73 62.87C117.46 64.97 117.74 67.22 117.76 69.33C117.79 73.8 117.7 78.28 117.71 82.75C117.72 84.89 118.43 88.41 117.65 90.38C117.22 91.46 111.55 97.46 110.54 97.74C109.22 98.11 107.34 97.23 106.14 96.75ZM102.25 42.44C104.28 44.51 105.55 47.97 106.5 50.75C104.92 52.24 102.63 53.35 100.6 53.25C100.07 49.89 100.81 45.49 102.25 42.44ZM137.75 43.09C138.74 44.29 140.06 50.96 139.76 52.6C139.51 54.02 138.62 55.26 138.48 56.75C137.92 62.66 138.52 68.81 138.44 74.75C138.39 78.55 137.74 83.1 138.75 86.73C139.92 87.05 141.08 87.37 142.25 87.7C142.27 89.07 141.38 89.57 141.07 90.78C140.74 92.08 141.05 93.43 140.69 94.75C135.44 96.68 132.84 92.12 131.3 87.75C132.59 87.42 133.88 87.08 135.17 86.75C136.29 83.72 135.61 79.48 135.6 76.25C135.6 70.05 136.4 62.83 135.65 56.75C135.46 55.26 134.49 54.03 134.19 52.64C133.97 51.59 135.21 44.18 135.81 43.56C136.4 42.95 136.99 43.13 137.75 43.09ZM163.75 56.83C165.98 61.14 162.15 65.55 166.24 69.75C164.7 77.42 163.15 85.08 161.6 92.75C159.28 93.73 152.54 95.2 150.25 94.5C149.64 91.4 149.94 88.16 149.75 85.01C149.44 79.94 149.03 74.82 148.57 69.75C148.34 67.13 147.24 62.27 148.75 60.06C149.78 60.14 150.7 60.87 151.71 60.82C153.49 60.73 154.78 58.76 156.4 58.21C158.35 57.53 161.64 57.22 163.75 56.83ZM162.75 63.22C162.28 62.82 161.83 62.29 161.2 62.22C160.71 62.16 152.83 65.31 152.25 65.7C151.53 67.29 151.56 68.2 152.35 69.75C156.18 70.65 162.6 67.59 162.75 63.22ZM85.75 65.98C88.93 64.77 88.8 61.69 92.81 64.25C93.55 66.71 93.5 70.26 92.86 72.75C88.22 75.99 88.2 70.39 83.75 70.92C82.82 71.03 81.98 71.35 81.34 72.06C80.23 73.27 80.3 74.9 79.55 76.25C80.9 78.95 80.88 87.97 79.75 90.8C77.25 90.8 74.75 90.8 72.25 90.8C71.97 88.78 71.49 78.84 72.16 77.35C72.38 76.86 72.8 76.64 73.15 76.25C72.69 74.92 72.24 73.58 71.78 72.25C66.15 68.06 60.79 75.52 57.04 75.75C55.77 73.53 59.31 70.29 60.92 68.65C65.58 63.9 69.78 63.06 76.25 63.11C77.64 63.12 79.22 62.9 80.59 63.23C82.56 63.71 83.72 65.52 85.75 65.98ZM191.75 67.03C192.51 70.19 192.43 79.9 191.75 83.11C190.25 84.29 188.43 84.93 187 86.25C184.85 88.23 184.99 90.5 181.75 90.87C180.76 89.84 180.57 88.27 179.65 87.08C178.14 85.12 175.47 84.36 173.66 82.75C173.66 77.51 173.66 72.27 173.66 67.03C179.69 67.03 185.72 67.03 191.75 67.03ZM143.44 104.59C143.95 105.07 144.46 105.56 144.97 106.05C145.43 106.57 145.89 107.1 146.35 107.62C146.91 108.22 147.47 108.83 148.03 109.43C148.83 110.33 149.64 111.24 150.44 112.15C150.62 112.3 150.8 112.46 150.98 112.62C152.45 114.29 153.92 115.97 155.39 117.65C156.74 119.11 158.08 120.57 159.43 122.04C159.87 122.49 160.31 122.94 160.75 123.39C163.29 122.26 165.28 118.97 167.21 116.95C172.84 111.07 178.16 104.92 183.74 99C185.82 96.8 188.1 93.31 190.75 91.98C194.04 93.74 200.01 101.64 203 104.74C209.56 111.55 215.65 118.77 222.17 125.6C225.42 129.01 229.89 132.68 232.2 136.75C229.82 137.4 219.6 137.89 217.5 136.73C215.9 135.85 212.25 131.04 210.79 129.45C206.88 125.2 202.82 121.08 198.98 116.76C196.41 113.88 193.86 110.39 190.75 108.1C183.45 115.98 176.15 123.87 168.85 131.75C169.97 134.69 174.55 138.46 176.81 140.93C181.01 145.54 185.33 150.1 189.43 154.81C191.77 157.49 194.61 159.87 196.67 162.75C194.55 163.99 191.22 163.29 188.75 163.32C186.14 163.36 180.4 164.05 178.14 163.15C176.07 162.31 170.6 155.43 168.81 153.42C158.92 142.34 148.46 131.75 138.53 120.71C135.37 117.2 128.78 108.76 125.25 106.51C122.23 108.19 114.38 117.71 111.58 120.82C101.88 131.6 91.82 142.08 82.11 152.86C80.13 155.05 74.56 162.08 72.29 163.1C70.38 163.96 63.19 163.34 60.75 163.32C58.52 163.31 55.67 163.86 53.78 162.75C62.98 152.58 72.18 142.42 81.38 132.25C79.76 129.2 76.71 126.91 74.5 124.25C71.1 120.16 63.3 110.93 59.25 108.17C56.23 110.71 53.72 113.91 51.05 116.79C47.78 120.33 44.3 123.73 41.17 127.39C39.66 129.15 34.18 135.97 32.61 136.83C31.4 137.49 29.57 137.15 28.25 137.15C24.9 137.13 21.05 137.71 17.86 136.75C31.65 121.79 45.45 106.82 59.25 91.86C61.47 93.93 63.7 96.01 65.92 98.08C66.59 98.92 67.26 99.76 67.93 100.6C68.64 101.38 69.35 102.17 70.06 102.96C71.19 104.16 72.32 105.37 73.44 106.58C76.62 110.05 79.8 113.51 82.98 116.97C83.95 117.98 84.93 118.98 85.91 119.98C86.59 120.73 87.27 121.48 87.95 122.24C88.39 122.65 88.82 123.07 89.25 123.49C101.25 110.75 113.25 98.01 125.25 85.27C131.31 91.71 137.38 98.15 143.44 104.59ZM116.64 211.25C117.57 215.51 115.82 224.7 117.72 227.75C118.52 227.9 119.17 228.04 119.95 227.68C122.44 226.53 125.38 215.17 131.37 220.9C132.13 221.63 132.61 222.28 132.99 223.25C133.59 224.75 133.79 226.22 134.25 227.75C135.75 228.04 136.51 228.16 137.65 227.25C136.97 226.29 135.49 225.28 135.23 224.12C134.67 221.7 136.46 220.45 138.35 219.6C141.89 218.02 149.32 217.55 150.75 222.43C151.39 224.61 149.4 225.83 149.03 227.75C150.33 227.96 151.7 228.32 152.96 227.69C156.57 225.91 155.89 220.16 160.75 219.87C162.27 219.78 163.47 220.11 164.52 221.24C166.91 223.79 168.76 231.33 164.2 232.92C161.36 233.91 158.84 231.78 156.25 231.22C153.53 233.65 149.35 233.75 145.86 232.83C144.92 232.59 144.28 231.93 143.25 231.93C142.24 231.94 141.58 232.59 140.65 232.83C137.83 233.56 134.84 233.5 132.25 232.26C128.74 233.87 126.65 231.94 123.25 231.42C119.55 233.96 113.42 234.08 112.21 228.62C111.46 225.21 111.94 216.24 111.88 212.25C113.45 211.13 114.81 210.78 116.64 211.25ZM92.75 216.48C95.55 218.51 98.71 221.55 99.74 224.98C101.05 229.32 98.14 233.06 93.75 233.17C89.66 233.27 86.07 229.69 87.25 225.45C87.68 223.89 89.05 222.82 89.65 221.39C90.54 219.23 90.86 218.06 92.75 216.48ZM108.09 223.25C108.82 224.19 108.88 224.97 109.21 226.1C111.18 232.89 108.08 239.91 101.25 242.46C100.26 241.22 99.28 239.99 98.29 238.75C100.43 236.68 105.24 234.79 105.5 231.24C105.66 229.01 103.93 227.01 104.05 224.75C105.17 223.88 106.7 223.26 108.09 223.25ZM145.75 223.02C144.25 223.02 142.75 223.02 141.25 223.02C141.39 224.6 141.85 225.1 143.25 225.94C144.91 225.34 145.57 224.75 145.75 223.02ZM93.25 223.88C91.91 224.74 91.14 225.7 91.25 227.35C92.82 228.32 94.18 228.36 95.75 227.42C95.61 225.78 94.56 224.75 93.25 223.88ZM161.25 224.55C160.07 225.1 159.6 225.58 159.09 226.75C160.1 228.04 161.14 228.05 162.75 228.08C163.22 226.26 162.91 225.46 161.25 224.55ZM128.25 224.82C126.82 225.23 126.71 225.36 126.18 226.75C127.37 227.15 128.56 227.56 129.75 227.96C129.77 226.29 129.57 225.86 128.25 224.82Z" fill="#051811" fill-rule="evenodd" stroke="#051811" stroke-width="0.25" stroke-linejoin="round"/>
</svg>