<?xml version="1.0" encoding="UTF-8"?>
<svg xmlns="http://www.w3.org/2000/svg" viewBox="0 0 250 284" width="250" height="284">
<path d="M222.25 117.43C219.37 115.24 217.1 111.79 214.62 109.12C213.22 107.6 210.81 105.64 210.08 103.67C208.99 100.73 208.81 93.95 207.98 90.26C206.05 81.64 202.71 72.8 197.95 65.31C189.48 51.99 178.12 40.5 163.84 33.41C135.96 19.57 100.75 21.23 75.53 40.28C58.45 53.18 46.13 71.6 42.07 92.76C41.5 95.7 41.45 101.49 40.62 103.83C39.51 106.93 35.48 109.63 33.33 112.08C32.05 113.55 29.68 116.81 27.75 116.94C26.01 112.41 27.12 102.21 27.84 97.22C30.23 80.73 35.7 64.98 45.73 51.47C54.49 39.67 65.73 28.92 78.99 22.25C119.09 2.07 166.77 8.81 197.41 42.35C211.32 57.56 221.56 77.94 222.91 98.75C223.22 103.5 224.98 113.7 222.25 117.43ZM158.97 121.22C157.51 119.63 156.05 118.05 154.58 116.46C154.59 116.22 154.59 115.99 154.59 115.75C154.2 115.57 153.81 115.39 153.42 115.2C153.22 114.99 153.03 114.77 152.84 114.55C152.14 113.53 151.45 112.5 150.75 111.48C150.51 111.47 150.26 111.45 150.02 111.44C148.33 109.62 146.65 107.8 144.96 105.98C144.23 103.17 140.68 101.54 139.82 98.75C142.63 97.12 147.45 97.35 150.74 96.88C159 95.71 167.3 94.6 175.53 93.26C178.31 92.81 185.55 91.06 187.73 92.25C178.9 102.09 170.08 111.93 161.25 121.77C160.49 121.59 159.73 121.4 158.97 121.22ZM88.01 122.2C83.96 117.79 79.91 113.38 75.87 108.97C75.41 106.92 71.82 102.91 69.99 102.47C69.49 102.02 69 101.58 68.5 101.13C68.69 101 68.89 100.88 69.08 100.75C68.39 100.17 67.7 99.58 67 99C65.35 96.75 63.69 94.5 62.04 92.25C65.76 91.37 71.82 93.23 75.77 93.87C83.35 95.11 90.95 96.31 98.49 97.75C101.8 98.37 105.4 98.42 108.49 99.75C108.35 101.86 105.63 103.93 104.24 105.48C100.91 109.15 97.48 112.73 94.21 116.44C92.43 118.46 90.59 121.33 88.01 122.2ZM59.75 129.89C61.49 128.81 64.01 129.1 65.98 129.5C65.98 131.47 65.98 133.45 65.98 135.42C64.37 135.73 62.4 135.94 60.77 135.57C60.41 135.49 60.02 135.11 59.67 135.1C59.13 135.07 58.76 135.48 58.24 135.59C56.58 135.96 54.7 135.64 53.11 135.25C53.11 133.42 53.11 131.58 53.11 129.75C55.19 128.92 57.72 128.95 59.75 129.89ZM190.25 129.88C192.28 128.99 194.87 128.91 196.92 129.75C196.92 131.58 196.92 133.42 196.92 135.25C195.29 135.67 193.46 135.94 191.76 135.62C191.26 135.52 190.86 135.15 190.35 135.18C188.16 135.29 186.32 135.89 184.02 135.39C184.02 133.42 184.02 131.46 184.02 129.49C185.97 129.09 188.53 128.8 190.25 129.88ZM43.25 132.07C45.03 134.12 46.1 139.33 47.2 142.09C48.83 146.18 52.07 150.06 53.15 154.25C50.18 157.35 47.22 160.45 44.25 163.55C42.45 162.59 41.61 160.4 40.62 158.64C38.54 154.93 36.65 151.23 34.88 147.36C34.18 145.82 32.76 143.56 33.14 141.82C33.39 140.67 34.84 139.69 35.65 138.91C37.85 136.78 40.47 133.28 43.25 132.07ZM216.95 144.25C215.34 149.39 209.72 161.37 205.75 164.88C203.39 163.69 198.46 156.77 197.17 154.25C199.06 149.88 201.82 145.87 203.69 141.44C204.84 138.73 205.47 135.78 206.75 133.15C208.29 133.24 209.05 134.6 210.04 135.7C212.26 138.16 215.81 141.16 216.95 144.25ZM123.94 134.25C123.94 138.16 123.94 142.07 123.94 145.98C120.33 146.51 114.84 146.99 111.42 145.75C111.19 139.38 117.29 132.68 123.94 134.25ZM138.75 146.04C134.98 146.52 130.11 146.75 126.47 145.75C126.47 141.92 126.47 138.08 126.47 134.25C132.79 132.97 140.02 139.43 138.75 146.04ZM59.75 137.95C61.35 136.65 64.04 137.02 65.98 137.46C65.98 139.42 65.98 141.37 65.98 143.32C63.67 143.86 61.85 143.24 59.67 143.13C59.14 143.11 58.75 143.48 58.24 143.58C56.56 143.9 54.74 143.63 53.12 143.25C53.12 141.38 53.12 139.51 53.12 137.63C55.21 136.84 57.8 136.84 59.75 137.95ZM196.93 137.23C196.93 139.36 196.93 141.48 196.93 143.6C194.51 144.21 192.54 143.56 190.24 143.37C188.15 143.19 186.16 143.83 184.02 143.36C184.02 141.32 184.02 139.28 184.02 137.23C188.32 137.23 192.62 137.23 196.93 137.23ZM123.93 148.19C123.93 152.42 123.93 156.65 123.93 160.88C119.87 160.88 115.81 160.88 111.75 160.88C110.76 157.37 110.72 151.71 111.75 148.19C115.81 148.19 119.87 148.19 123.93 148.19ZM138.99 148.19C138.99 152.42 138.99 156.65 138.99 160.88C134.82 160.88 130.65 160.88 126.48 160.88C126.48 156.65 126.48 152.42 126.48 148.19C130.65 148.19 134.82 148.19 138.99 148.19ZM201.75 169.25C201.82 172.03 196.1 177.12 193.95 179.2C185.14 187.7 175 194.71 163.68 199.4C130.17 213.3 93.61 208.28 64.89 186.37C59.27 182.09 51.93 175.87 48.33 169.75C50.84 168.19 58.48 169.08 61.75 169.07C63.24 169.07 64.7 168.94 66.02 169.73C68 170.91 69.52 173 71.3 174.46C74.08 176.73 77.05 178.74 80.04 180.7C92.36 188.79 107.12 193.08 121.79 193.78C136.56 194.48 152.19 191.07 165.15 183.89C170.31 181.03 175.22 177.78 179.79 174.03C181.46 172.66 183.06 170.16 185.1 169.34C186.61 168.74 188.66 169.08 190.25 169.08C193.91 169.07 198.19 168.44 201.75 169.25ZM167.25 252.08C167.83 252.63 168.42 253.19 169 253.75C168.42 254.42 167.83 255.1 167.25 255.77C166.09 255.17 165.85 254.94 165.33 253.75C165.97 253.19 166.61 252.63 167.25 252.08ZM204.25 252.52C204.75 253.43 205.25 254.34 205.75 255.25C203.57 256.42 201.39 257.58 199.21 258.75C199.56 259.95 200.29 260.73 201 261.77C203.41 265.3 203.19 266.55 208.08 266.25C207.86 263.83 205.54 263.7 206.9 260.2C208.58 255.88 213.43 256.92 214.89 260.82C218.67 270.94 207.74 271.5 201.25 269.1C199.89 269.74 198.79 270.28 197.25 270.33C195.24 270.41 192.45 270.76 190.71 269.53C188.05 267.65 188.53 256.77 189.25 253.82C190.21 253.82 191.18 253.82 192.14 253.82C193.8 257.6 191.37 262.54 193.25 266.07C195.05 266.5 196.65 266.49 198.34 265.75C199.05 261.96 194.17 261.97 195.25 256.37C198.25 255.09 201.25 253.8 204.25 252.52ZM108.25 252.98C111.54 253.11 109.32 253.58 110.32 255.18C110.73 255.84 113.91 257.11 111.48 258.23C111.01 258.45 110.73 258.29 110.25 258.33C109.26 257.38 109.67 256.92 109.22 255.79C108.59 254.24 107.33 255.73 108.25 252.98ZM213.66 255.25C212.37 256.11 211.91 255.91 210.75 254.91C209.06 255.77 207.25 256.56 207.25 253.91C208.79 252.52 208.76 253.85 210.28 253.98C211.31 254.07 214.53 251.41 213.66 255.25ZM91.02 253.75C91.02 257.75 91.02 261.75 91.02 265.75C92.56 266.35 93.28 266.42 94.8 265.75C95.15 263.29 95.05 262.24 97.85 262.25C98.32 263.55 98.78 264.86 99.25 266.16C101.71 265.79 101.62 264.26 102.75 262.34C104.17 262.06 104.7 262.26 105.75 263.2C105.63 264.74 105.37 265.15 106.25 266.43C107.08 265 107.92 263.57 108.75 262.14C111.92 262.61 109.98 265.07 111.75 266.82C114.3 265.97 112.53 263.13 112.12 261.25C113.01 260.37 113.52 260.16 114.75 259.94C117.83 265.33 116.51 273.31 108.75 269.36C104.89 271.25 105.71 269.54 102.78 269.67C101.4 269.73 100.33 270.48 98.85 270.3C97.99 270.19 97.21 269.63 96.34 269.69C93.75 269.84 90.45 271.47 88.36 268.89C86.54 266.63 86.8 257.28 87.25 254.42C88.66 253.76 89.47 253.62 91.02 253.75ZM81.75 254.6C82.41 255.15 83.07 255.7 83.72 256.25C82.98 257.58 82.75 257.82 81.25 258.08C80.82 257.47 80.39 256.86 79.96 256.25C80.56 255.7 81.15 255.15 81.75 254.6ZM108.7 257.25C108.22 257.65 107.73 258.06 107.25 258.46C106.7 258.06 106.16 257.65 105.61 257.25C105.91 256.75 106.2 256.25 106.5 255.75C107.89 255.75 108.08 256.02 108.7 257.25ZM44.75 256.52C45.42 257.1 46.1 257.67 46.77 258.25C45.99 259.59 45.79 259.82 44.25 260.02C43.82 259.43 43.38 258.84 42.95 258.25C43.55 257.67 44.15 257.1 44.75 256.52ZM162.25 270.63C159.88 274.06 157.68 276.71 153.25 277.18C152.45 276.03 152.18 275.33 152.25 273.93C154.09 272.64 156.46 272.77 157.72 270.75C156.24 270.04 154.3 269.99 153.3 268.46C151.69 266.03 152.74 261.56 155.46 260.24C161.61 257.27 160.61 268.63 165.1 265.75C159.91 260.73 166.9 253.88 170.62 259.11C172.83 262.21 173.12 268.07 168.98 269.71C166.82 270.56 164.44 270.07 162.25 270.63ZM76.68 258.25C77.12 260.86 76.62 263.98 78.25 266.15C79.71 266.42 80.74 266.32 82.1 265.75C81.73 264.42 81.37 263.08 81 261.75C81.93 260.55 82.72 260.19 84.25 260.08C86.86 263.49 86.6 269.55 81.54 270.26C77.51 270.82 77.22 269.53 74.24 269.02C72.46 268.72 70.87 269.16 69.33 267.93C65.52 264.91 69.93 261.75 72.08 259.82C72.59 259.36 72.83 258.55 73.42 258.22C74.54 257.59 75.6 257.94 76.68 258.25ZM38.66 260.75C38.36 261.75 38.05 262.75 37.74 263.75C35.25 264.15 33.87 264.3 32.15 266.25C33.61 267.91 36.32 267.7 37.68 269.56C41.23 274.43 33.19 277.51 29.75 277.64C22.2 277.92 18.51 269.95 22.75 263.94C23.63 264.21 24.51 264.48 25.39 264.75C25.39 266.73 24.21 268.97 24.74 271.02C25.65 274.57 32.26 273.62 34.41 272.25C32.76 270.76 29.48 270.98 28.97 268.24C28.06 263.31 34.11 257.66 38.66 260.75ZM49.3 276.75C49.3 275.75 49.3 274.75 49.3 273.75C51.17 272.79 53.47 272.66 54.6 270.75C52.31 269.6 49.71 269.46 49.38 266.25C49.05 263.1 51.99 258.55 55.55 260.24C62.61 263.58 58.99 278.47 49.3 276.75ZM141.76 260.75C141.42 261.77 141.09 262.79 140.75 263.81C138.3 264.2 136.96 264.26 135.3 266.25C136.71 267.92 139.34 267.71 140.74 269.5C144.54 274.38 136.15 277.54 132.75 277.64C125.18 277.85 121.93 270.13 125.75 264.06C127.2 264 127.71 264.03 128.75 265.09C128.55 267.1 127.25 269.05 127.92 271.23C128.91 274.43 135.68 273.74 137.59 272.25C135.79 270.58 132.23 270.98 131.99 267.75C131.68 263.4 137.48 257.17 141.76 260.75ZM229.75 260.01C231.2 262.87 232.66 267.81 228.93 269.67C227.22 270.53 225.13 270.27 223.33 270.75C221.6 273.49 219.91 276.12 216.75 277.29C216.03 276.44 215.32 275.6 214.6 274.75C216.18 272.92 219.64 271.48 219.85 268.73C219.96 267.28 218.99 265.69 218.76 264.25C219.76 263.79 220.75 263.33 221.75 262.87C222.42 263.92 223.08 264.97 223.75 266.02C225.33 266.45 226.38 266.39 227.75 265.5C227.3 264.25 226.85 263 226.4 261.75C227.4 260.53 228.17 260.16 229.75 260.01ZM168.25 262.83C168.25 261.1 167.8 260.7 166.04 261.25C166.47 262.56 166.81 262.76 168.25 262.83ZM211.75 262.79C211.61 260.92 210.96 260.89 209.22 261.25C209.86 262.56 210.21 262.84 211.75 262.79ZM46.75 262.9C50.07 268.23 47.3 274.98 41.75 277.3C40.99 276.45 40.22 275.6 39.46 274.75C40.92 272.79 44.55 271.52 44.77 268.67C44.88 267.32 43.8 265.62 43.58 264.25C44.65 263.31 45.35 263.08 46.75 262.9ZM65.75 262.91C68.82 268.35 66.42 274.89 60.75 277.29C59.97 276.44 59.19 275.6 58.41 274.75C59.93 272.82 63.49 271.5 63.75 268.64C63.87 267.35 62.78 265.54 62.51 264.25C63.62 263.33 64.32 263.08 65.75 262.91ZM149.75 262.9C153.64 267.79 150.12 275.34 144.75 277.29C144.04 276.44 143.33 275.6 142.62 274.75C144.1 272.91 147.65 271.44 147.85 268.73C147.95 267.33 146.96 265.66 146.76 264.25C147.79 263.36 148.4 263.11 149.75 262.9ZM185.75 262.89C189.57 267.87 186.17 275.28 180.75 277.3C180.03 276.45 179.31 275.6 178.59 274.75C180.1 272.93 183.61 271.43 183.83 268.72C183.94 267.28 182.89 265.7 182.69 264.25C183.71 263.8 184.73 263.34 185.75 262.89ZM72.75 263.28C72.27 263.77 71.8 264.26 71.32 264.75C71.96 264.82 72.61 264.88 73.25 264.95C73.08 264.39 72.92 263.83 72.75 263.28ZM53.25 263.94C53.08 264.55 52.92 265.15 52.75 265.76C54.06 266.27 54.53 266.35 55.76 265.75C55.07 264.29 54.85 264.07 53.25 263.94ZM156.25 263.99C156.13 264.58 156 265.16 155.88 265.75C157.12 266.2 157.77 266.53 158.86 265.75C158.27 264.26 157.84 264.03 156.25 263.99ZM95.75 271.57C96.35 272.13 96.96 272.69 97.56 273.25C96.89 274.51 96.65 274.74 95.25 274.99C94.81 274.41 94.38 273.83 93.94 273.25C94.54 272.69 95.15 272.13 95.75 271.57ZM227.25 271.48C228.43 272.16 228.71 272.45 229.06 273.75C228.63 274.19 228.19 274.62 227.75 275.06C226.38 274.74 226.1 274.48 225.39 273.25C226.01 272.66 226.63 272.07 227.25 271.48Z" fill="#fbb102" fill-rule="evenodd" stroke="#fbb102" stroke-width="0.25" stroke-linejoin="round"/>
<path d="M110.75 97.83C109.22 97.47 107.68 97.11 106.15 96.75C105.38 90.25 106.03 83.3 106.03 76.75C106.03 74.18 106.57 70.85 105.82 68.38C104.77 64.97 101.17 61.02 99.43 57.75C102.58 53.78 113.25 51.7 117.25 47.81C117.32 44.36 113.62 39.8 112.71 36.25C119.33 35.53 124.99 42.8 125.26 48.88C125.42 52.43 124.24 55.94 121.77 58.53C120.65 59.71 118.34 60.65 117.89 62.26C117.31 64.35 117.76 67.09 117.76 69.25C117.77 74.08 117.76 78.92 117.76 83.75C117.76 85.71 118.3 88.56 117.68 90.42C117.09 92.2 112.32 96.55 110.75 97.83ZM102.25 42.27C104.35 44.14 105.69 48.02 106.51 50.75C105.12 52.12 102.69 53.46 100.75 53.57C100.07 49.94 100.66 45.63 102.25 42.27ZM137.75 43.05C138.9 44.36 140.08 50.78 139.81 52.67C139.61 54.08 138.68 55.26 138.56 56.75C138.03 63.49 138.52 70.49 138.5 77.25C138.5 80.19 137.86 84.02 138.92 86.75C140.03 87 141.14 87.25 142.25 87.5C142.33 89.01 141.52 89.5 141.16 90.84C140.82 92.09 140.99 93.53 140.75 94.82C139.68 95.2 138.43 95.68 137.28 95.49C134.34 95 132.03 90.13 131.34 87.75C132.48 86.89 133.58 87.01 135 86.75C136.14 83.75 135.45 79.47 135.47 76.25C135.51 69.88 136.27 63.08 135.61 56.75C135.46 55.25 134.39 54.11 134.15 52.69C133.97 51.56 135.12 44.17 135.75 43.51C136.36 42.87 136.96 43.08 137.75 43.05ZM163.75 56.65C165.88 60.96 162.45 65.83 166.25 69.75C164.73 77.42 163.21 85.08 161.7 92.75C159.3 93.92 152.86 95.11 150.25 94.68C149.61 91.92 149.88 89.03 149.73 86.2C149.44 80.73 149.06 75.2 148.54 69.75C148.29 67.05 147.19 62.28 148.75 60.03C149.69 60.12 150.75 60.83 151.66 60.77C153.39 60.64 154.77 58.74 156.38 58.17C158.55 57.41 161.43 57.24 163.75 56.65ZM162.04 62.75C159.88 62.12 158.21 63.63 156.14 64.38C153.61 65.3 149.33 66.28 152.75 69.86C155.62 70.15 164.95 66.57 162.04 62.75ZM85.75 65.87C88.7 64.68 89.03 61.53 92.75 64.17C93.5 66.85 93.46 70.02 92.92 72.75C88.19 76.59 87.35 68.72 82.26 71.5C79.95 72.76 80.05 75.59 80.31 77.81C80.66 80.8 80.96 88.3 79.75 90.84C77.25 90.84 74.75 90.84 72.25 90.84C71.71 87.77 71.13 78.55 72.95 76.25C72.53 74.92 72.11 73.58 71.69 72.25C65.63 68.28 60.8 75.7 56.98 75.75C55.79 73.51 59.24 70.23 60.87 68.6C65.32 64.13 70.06 62.95 76.25 63.01C77.68 63.02 79.29 62.79 80.7 63.13C82.61 63.59 83.68 65.5 85.75 65.87ZM192.04 67.25C192.04 72.54 192.04 77.82 192.04 83.11C190.28 84.19 188.28 85.05 186.73 86.49C184.28 88.78 185.49 91.07 181.19 90.75C179.69 85.66 177.02 85.89 173.57 82.84C173.57 77.64 173.57 72.45 173.57 67.25C177.08 66.44 188.59 66.34 192.04 67.25ZM144.96 105.98C146.65 107.8 148.33 109.62 150.02 111.44C150.96 112.48 151.9 113.52 152.84 114.55C153.03 114.77 153.22 114.99 153.42 115.2C153.81 115.62 154.2 116.04 154.58 116.46C156.05 118.05 157.51 119.63 158.97 121.22C159.56 121.87 160.16 122.52 160.75 123.17C163.89 121.79 166.68 117.37 169.06 114.81C173.96 109.55 178.87 104.3 183.72 98.98C185.87 96.63 188.06 93.47 190.75 91.83C204.58 106.8 218.41 121.78 232.25 136.75C230.25 137.39 219.72 137.73 217.81 136.96C215.85 136.16 212.32 131.25 210.72 129.52C206.24 124.68 201.77 119.83 197.28 114.98C195.2 112.72 193.24 110.01 190.75 108.22C183.48 116.07 176.22 123.91 168.95 131.75C170.14 135.09 174.38 138.28 176.8 140.94C183.39 148.16 190.76 155.06 196.77 162.75C194.87 164.05 191.62 163.43 189.25 163.45C186.41 163.46 180.53 164.18 178.04 163.21C175.95 162.4 172.33 157.39 170.67 155.58C160.57 144.52 150.32 133.59 140.21 122.55C136.06 118.02 129.9 110.08 125.25 106.64C121.66 108.77 113.95 118.33 110.67 121.93C100.9 132.65 90.95 143.2 81.19 153.93C79.42 155.88 74.41 162.26 72.41 163.18C70.19 164.21 63.9 163.46 61.25 163.44C58.8 163.43 55.65 163.99 53.61 162.75C62.84 152.58 72.08 142.42 81.31 132.25C79.63 128.8 75.87 125.84 73.27 122.99C69.52 118.87 63.57 111.1 59.25 108.2C56.85 110.15 54.85 112.73 52.76 115.02C48.63 119.55 44.43 124.02 40.29 128.54C38.6 130.38 34.47 135.8 32.59 136.82C31.35 137.5 29.62 137.22 28.25 137.21C24.94 137.21 20.96 137.8 17.86 136.75C31.66 121.78 45.45 106.8 59.25 91.83C61.83 94.22 64.42 96.61 67 99C67.5 99.71 68 100.42 68.5 101.13C69 101.58 69.49 102.02 69.99 102.47C71.95 104.64 73.91 106.81 75.87 108.97C79.91 113.38 83.96 117.79 88.01 122.2C88.42 122.58 88.84 122.97 89.25 123.36C101.25 110.66 113.25 97.97 125.25 85.28C131.82 92.18 138.39 99.08 144.96 105.98ZM116.25 210.83C118.92 215.38 115.21 223.41 117.75 227.72C122.8 228.68 122.37 219.49 128.25 219.54C131.27 219.57 133.03 222.41 133.74 225C133.95 225.78 133.8 227.18 134.52 227.7C135.34 228.31 136.59 227.87 137.46 227.75C137.01 225.49 134.47 224.84 135.3 222.09C136.66 217.61 146.89 217.57 149.68 220.56C152.32 223.38 149.56 224.99 149.15 227.75C150.62 227.97 152.25 228.31 153.52 227.28C156.46 224.88 156.37 219.67 161.25 219.78C162.57 219.81 163.64 220.26 164.57 221.19C167.17 223.78 168.62 231.24 164.19 232.94C161.72 233.88 158.98 232.25 156.75 231.3C153.41 233.22 150.64 233.72 146.75 233C145.56 232.78 144.47 231.97 143.25 232C142.41 232.02 141.83 232.53 141.06 232.77C138.19 233.64 134.92 233.61 132.25 232.33C128.85 233.93 126.58 232.05 123.25 231.49C119.61 233.92 113.73 234.19 112.27 228.99C111.25 225.37 111.96 216.53 111.78 212.25C113.2 211.18 114.49 210.92 116.25 210.83ZM92.75 216.5C98.56 219.86 105.11 232.37 94.05 233.26C89.82 233.6 86.31 230.04 87.15 225.8C87.48 224.18 88.76 223.06 89.45 221.64C90.46 219.55 90.61 217.85 92.75 216.5ZM108.28 223.25C112.53 230.36 108.75 239.69 101.25 242.59C100.25 241.31 99.25 240.03 98.25 238.75C100.48 236.76 105.12 234.71 105.35 231.22C105.49 228.94 103.9 227.02 104.02 224.75C105.36 223.79 106.67 223.19 108.28 223.25ZM145.59 223.06C144.16 223.06 142.73 223.06 141.3 223.06C141.62 224.62 141.88 224.95 143.25 225.83C144.9 225.28 145.28 224.71 145.59 223.06ZM93.25 223.92C91.89 224.74 91.33 225.68 91.23 227.25C92.52 228.42 94.55 228.48 95.79 227.25C95.34 225.77 94.51 224.79 93.25 223.92ZM162.75 228.1C163.48 224.7 160.48 223.24 159.13 226.75C160.25 227.89 161.18 228.01 162.75 228.1ZM128.25 224.79C126.93 225.28 126.8 225.41 126.33 226.75C127.62 227.5 128.35 227.78 129.83 227.75C129.81 226.31 129.29 225.68 128.25 224.79Z" fill="#c9dcec" fill-rule="evenodd" stroke="#c9dcec" stroke-width="0.25" stroke-linejoin="round"/>
</svg>