<?xml version="1.0" encoding="UTF-8"?>
<svg xmlns="http://www.w3.org/2000/svg" viewBox="0 0 512 512" width="512" height="512">
<path d="M427.25 206.09C424.01 204.81 420.77 199.55 418.32 196.92C415.34 193.71 412.23 190.51 409.62 187.13C408.25 185.35 406.26 184 405.38 181.85C404.56 179.85 405.01 177.81 404.68 175.75C404.25 173.1 404.06 170.39 403.66 167.75C403.39 165.92 402.74 164.2 402.3 162.42C401.92 160.9 402.15 159.22 401.67 157.72C401.31 156.59 400.59 155.6 400.3 154.42C399.98 153.15 400.09 151.8 399.71 150.54C396.73 140.48 392.75 130.61 387.84 121.41C387.16 120.13 386.12 119.05 385.45 117.79C385.07 117.1 385.05 116.27 384.67 115.59C382.89 112.37 380.3 109.51 378.32 106.42C377.22 104.71 376.35 102.83 374.99 101.28C372.92 98.9 370.74 96.49 368.67 94.09C368.11 93.44 367.87 92.58 367.31 91.93C364.27 88.42 360.52 84.78 357.04 81.71C356.39 81.14 355.57 80.87 354.89 80.34C353.6 79.34 352.62 77.96 351.35 76.91C348.56 74.62 345.39 72.87 342.53 70.69C341.15 69.64 339.89 68.27 338.41 67.33C328.07 60.74 314.44 53.69 302.58 50.7C301.34 50.39 300.32 49.51 299.13 49.18C298.06 48.89 296.93 49.14 295.86 48.84C294.64 48.49 293.5 47.71 292.27 47.34C290.46 46.79 288.56 47.03 286.75 46.68C282.94 45.94 279.12 44.99 275.25 44.35C273.62 44.08 271.89 44.23 270.25 44.12C260.29 43.41 249.97 43.29 240.11 44.75C234.65 45.56 229.1 45.94 223.73 47.34C212.33 50.31 200.95 54.29 190.32 59.52C185.12 62.09 180.47 65.79 175.6 68.84C168.53 73.27 162.13 78.56 156.1 84.34C155.27 85.15 154.16 85.77 153.39 86.62C151.04 89.2 148.78 92.12 146.46 94.68C143.15 98.32 140.29 102.09 137.35 106.12C136.1 107.83 134.55 109.38 133.47 111.22C125.33 125.17 118.23 139.91 114.32 155.73C113.1 160.67 112.74 165.74 111.9 170.73C111.64 172.26 111.02 173.66 110.9 175.25C110.73 177.45 111.33 180.32 110.68 182.42C110.09 184.36 106.05 187.71 104.52 189.28C100.71 193.18 97.27 197.22 93.37 201.12C91.82 202.67 90.19 204.87 88.25 205.79C86.47 203.83 87.4 200.74 87.11 198.25C86.27 190.84 86.64 182.5 87.83 175.22C88.42 171.59 88.52 167.91 88.87 164.25C89.26 160.19 90.65 156.18 91.65 152.27C92.66 148.36 93.11 144.08 94.45 140.28C99.17 126.93 104.63 113.11 112.43 101.16C114.9 97.37 117.77 93.82 120.32 90.08C133.84 70.28 153.25 54.62 173.5 42.27C175.98 40.76 178.86 40 181.37 38.64C184.07 37.18 186.68 35.52 189.52 34.29C195.7 31.62 202.12 29.95 208.45 27.71C210.79 26.89 213.16 25.9 215.58 25.3C218.48 24.57 221.52 24.31 224.42 23.7C227.16 23.12 229.95 22.25 232.75 21.96C234.55 21.77 236.46 21.98 238.25 21.67C240.44 21.29 242.6 20.77 244.75 20.32C248.62 19.5 257.42 20.2 261.75 20.24C264.36 20.26 267.16 19.93 269.75 20.28C272.27 20.62 274.77 21.26 277.25 21.69C278.55 21.92 279.94 21.66 281.25 21.78C284.88 22.13 289.68 23.05 293.26 23.81C299.06 25.04 304.71 27.08 310.42 28.3C311.69 28.57 312.68 29.42 313.87 29.82C314.69 30.1 315.62 30.03 316.42 30.32C317.23 30.61 317.77 31.39 318.59 31.67C319.52 32 320.55 31.89 321.48 32.29C324.68 33.66 327.66 35.55 330.85 36.9C335.91 39.04 341.02 41.62 345.82 44.45C347.86 45.65 349.53 47.51 351.63 48.64C354.62 50.26 357.77 52.12 360.41 54.36C360.87 54.75 361.04 55.33 361.52 55.72C365.49 58.93 369.81 61.74 373.32 65.44C375.81 68.07 378.82 70.26 381.34 72.9C385.67 77.43 389.32 82.58 393.24 87.5C394.03 88.49 395.11 89.34 395.83 90.41C405.58 104.86 414.25 119.81 419.8 136.41C422.21 143.6 423.88 151.21 425.7 158.57C426.22 160.7 425.95 163.09 426.35 165.25C428.29 175.61 429.16 186.68 428.48 197.25C428.31 199.91 428.71 203.83 427.25 206.09ZM228.89 175.25C228.46 178.71 224.83 180.56 222.78 183.04C221.62 184.43 220.69 185.81 219.37 187.12C213.52 192.98 208.26 199.41 202.55 205.33C199.88 208.1 197.64 211.29 194.75 213.77C192.4 213 192.03 211.58 190.38 209.87C187.03 206.41 184.09 202.91 180.83 199.41C173.77 191.84 167.08 183.87 160 176.27C156.39 172.4 149.5 166.15 147.25 161.68C148.76 160.88 149.6 161.5 151.25 161.72C155.74 162.32 160.24 163.57 164.75 163.96C168.28 164.27 171.45 165.2 174.9 165.74C182.99 167.01 191.16 167.93 199.25 169.31C200.78 169.57 202.22 170.37 203.75 170.65C206.08 171.07 208.56 171.41 210.87 171.79C214.93 172.47 218.87 172.89 222.9 173.75C225.01 174.2 227.16 173.86 228.89 175.25ZM366.75 161.23C365.93 165.07 358.91 170.45 356.36 173.62C350.86 180.47 344.68 187.08 338.55 193.33C336.4 195.52 334.62 198.51 332.47 200.68C332.11 201.04 331.57 201.12 331.21 201.48C328.06 204.7 323.33 212.31 319.25 213.8C315 210.52 311.96 205.76 308.34 201.89C303.43 196.65 298.36 191.49 293.68 186.03C291.27 183.21 283.58 176.28 282.83 173.25C284.79 171.94 286.5 172.46 288.75 172.15C293.58 171.47 298.46 170.75 303.25 170.03C310.06 168.99 316.95 168.19 323.75 167.17C324.84 167.01 325.82 166.4 326.89 166.25C329.3 165.92 331.85 166.08 334.25 165.67C336.46 165.29 338.69 164.56 340.89 164.25C343.3 163.92 345.85 164.09 348.25 163.68C353.23 162.84 361.99 160.44 366.75 161.23ZM143.06 227.25C142.86 230.28 143.72 234.52 142.53 237.25C140.07 238.29 135.02 238.36 132.58 237.25C131.38 234.73 131.71 229.74 132.25 226.95C135.22 226.04 140.29 225.74 143.06 227.25ZM154.63 227.25C155.32 229.81 155.52 234.93 154.4 237.25C151.78 238.46 146.76 238.13 144 237.44C144 234.04 144 230.65 144 227.25C146.13 226 152.37 226.17 154.63 227.25ZM360.25 226.48C361.75 226.48 363.27 226.73 364.75 226.68C367.24 226.59 369.17 225.74 370.69 228.16C370.69 231.05 370.69 233.94 370.69 236.83C368.52 238.51 362.81 238.18 360.25 237.47C359.25 234.7 359.08 229.25 360.25 226.48ZM382.48 227.25C382.48 230.58 382.48 233.92 382.48 237.25C379.63 238.29 375.26 238.05 372.25 237.62C371.28 234.81 371.36 230.23 371.9 227.25C374.21 225.95 380.01 226.22 382.48 227.25ZM115.25 230.97C117.23 233.75 119.47 243.25 121.09 247.17C123.14 252.13 125.67 256.85 128.02 261.67C129.36 264.42 131.42 266.95 132.64 269.75C127.35 275.38 122.05 281 116.75 286.63C113.8 284.67 112.02 280.42 110.44 277.37C108.24 273.13 105.76 269.21 103.89 264.85C103.55 264.06 102.81 263.54 102.45 262.76C101.71 261.19 101.34 259.35 100.57 257.76C99.22 254.99 97.4 251.67 97.25 248.51C100.17 244.09 104.46 241.06 108.11 237.37C110.17 235.29 112.54 231.99 115.25 230.97ZM399.75 232.98C402.51 233.36 405.64 238.51 407.56 240.7C409.41 242.79 416.89 249.99 417.15 252.25C417.37 254.2 413.47 261.24 412.47 263.26C412.12 263.96 412.08 264.79 411.76 265.52C411.41 266.32 410.73 266.85 410.33 267.59C409.33 269.45 408.58 271.52 407.68 273.43C406.7 275.52 405.06 277.31 404.02 279.33C402.42 282.41 400.44 286.27 397.75 288.63C395.65 287.73 394.78 285.62 393.32 283.91C391.28 281.51 389.54 279.08 387.7 276.54C386.03 274.24 383.58 272.56 382.77 269.75C386.99 263.33 392.64 252.99 395.06 245.73C396.14 242.5 397.81 235.4 399.75 232.98ZM255.04 234.25C255.98 236.13 255.51 238.65 255.47 240.75C255.38 245.75 255.58 250.75 255.46 255.75C252.91 256.49 249.92 256.14 247.25 256.1C242.98 256.04 238 256.83 233.91 255.75C231.74 244.42 244.21 233.37 255.04 234.25ZM281.47 256.1C274.4 256.1 267.32 256.1 260.25 256.1C259.26 252.3 259.93 248.17 259.89 244.26C259.85 241.05 259.35 237.56 260.25 234.46C262.17 234.03 263.84 234.68 265.75 235.05C274.59 236.73 283.4 246.89 281.47 256.1ZM142.25 240.65C143.81 243.28 143.02 248.31 142.75 251.3C139.2 251.3 135.64 251.3 132.09 251.3C132.09 247.72 132.09 244.14 132.09 240.56C134.41 239.89 140.08 239.65 142.25 240.65ZM154.41 240.75C155.62 243.68 155.03 248.16 154.75 251.3C151.18 251.3 147.6 251.3 144.03 251.3C144.03 247.69 144.03 244.07 144.03 240.46C146.38 240.01 152.4 239.62 154.41 240.75ZM369.75 240.23C371.25 243.46 370.79 247.3 370.65 250.75C367.88 251.93 363.18 251.72 360.25 251.14C359.2 248.1 359.4 243.37 360.15 240.23C363.35 240.23 366.55 240.23 369.75 240.23ZM381.55 240.17C383.05 242.41 383.07 249.52 381.99 251.96C378.58 251.96 375.17 251.96 371.77 251.96C371.77 248.03 371.77 244.1 371.77 240.17C375.03 240.17 378.29 240.17 381.55 240.17ZM255.3 259.75C256.43 264.1 255.22 270.1 255.51 274.75C255.66 277.27 256.07 279.8 254.28 281.75C249.77 281.75 245.26 281.74 240.75 281.76C238.47 281.77 235.85 282.13 233.75 281.3C232.86 279.56 233.82 277.69 233.71 275.75C233.5 271.74 233.57 267.75 233.7 263.75C233.77 261.86 233.17 260.8 234.48 259.25C239.21 259.31 243.99 259.35 248.75 259.44C250.76 259.48 253.56 258.71 255.3 259.75ZM280.52 259.41C282.34 260.44 281.76 262.79 281.76 264.75C281.76 269.02 282.64 277.55 281.35 281.25C279.43 282.19 276.84 281.74 274.72 281.73C270.51 281.72 264.15 282.59 260.25 281.47C259.06 277.37 259.93 272.51 259.89 268.26C259.85 265.33 259.36 262.18 260.42 259.41C267.12 259.41 273.82 259.41 280.52 259.41ZM391.75 296.65C384.09 308.99 368.93 321.47 357.47 330.23C355.82 331.49 353.92 332.31 352.2 333.46C327.25 350.29 296.51 361.08 266.25 361.9C261.08 362.03 255.92 362.03 250.75 361.9C247.83 361.82 244.64 362.18 241.75 361.69C239.59 361.32 237.42 360.68 235.25 360.35C233.59 360.09 231.91 360.41 230.25 360.02C228.58 359.62 226.97 359.09 225.25 358.83C224.37 358.69 223.45 358.89 222.58 358.7C221.28 358.43 220.03 357.75 218.74 357.43C213.05 356 207.34 354.76 201.78 352.95C197.11 351.42 190.91 348.89 186.48 346.74C184.5 345.79 182.68 344.41 180.7 343.49C176.96 341.77 173.1 339.93 169.57 337.68C168.49 336.99 167.51 335.99 166.41 335.36C165.72 334.97 164.88 334.96 164.21 334.55C163.68 334.23 163.43 333.69 162.97 333.32C162.2 332.69 161.21 332.39 160.41 331.84C158.07 330.22 155.97 328.2 153.66 326.55C142.13 318.28 132.52 307.57 123.37 296.75C125.11 295.41 128.03 295.92 130.25 295.9C135.76 295.84 141.25 296.07 146.75 295.92C148.84 295.86 152.51 295.25 154.39 296.38C154.8 296.63 154.91 297.17 155.25 297.49C157.89 300.06 160.83 302.66 163.65 305.09C164.4 305.75 165.33 306.05 166.11 306.66C169.89 309.57 173.63 312.48 177.54 315.22C184.08 319.8 191.43 323.41 198.8 326.42C202.97 328.12 207.03 330.13 211.29 331.52C226.06 336.32 241.71 338.8 257.25 338.96C260.55 339 263.66 338.68 266.89 338.25C268.97 337.97 271.16 338.35 273.25 338.19C277.91 337.85 282.68 336.91 287.25 336.05C305.14 332.67 321.99 324.91 337.42 315.67C342.6 312.56 347.41 308.6 351.9 304.66C352.63 304.01 353.6 303.72 354.35 303.1C356.65 301.18 358.75 297.5 361.49 296.27C364.57 294.9 374.39 296.08 378.25 295.96C381.84 295.85 388.78 294.87 391.75 296.65ZM330.75 440.03C331.82 441.1 332.9 442.18 333.97 443.25C332.9 444.47 331.82 445.7 330.75 446.92C329.53 445.86 328.31 444.81 327.08 443.75C327.75 442.13 329.15 440.77 330.75 440.03ZM229.25 441.08C230.62 441.64 231.38 442.48 232.13 443.75C231.34 444.67 230.54 445.6 229.75 446.52C228.79 445.6 227.83 444.67 226.87 443.75C227.66 442.86 228.46 441.97 229.25 441.08ZM395.75 440.98C396.45 442.74 397.15 444.49 397.85 446.25C395.67 448.09 389.06 450.56 386.19 451.25C386.16 453.71 388.49 454.99 389.72 457.01C392.61 461.78 392.66 465.02 399.25 465.09C400.82 465.11 402.37 465.26 403.84 464.75C402.18 463.14 400.06 463.02 399.26 460.52C397.7 455.64 401.71 447.66 407.65 449.16C411.5 450.13 413.93 455.01 414.7 458.58C416.91 468.83 409.21 471.98 400.75 472.01C398.85 472.01 396.69 472.3 394.84 471.85C393.19 471.46 391.77 470.42 390.25 469.77C387.84 470.68 385.95 472 383.25 472.02C379.39 472.04 374.94 472.75 371.54 470.69C368.43 468.81 368.83 465.24 368.72 462.25C368.59 458.63 368.81 454.89 368.52 451.25C368.33 448.92 367.91 446.61 368.15 444.25C370.02 443.45 372.33 442.19 374.3 442.75C376.99 448.04 373.32 459.5 375.52 464.25C377.22 465.51 381.64 465.64 383.65 464.88C384.58 464.53 385.14 463.54 385.62 462.75C384.55 460.57 383.22 458.44 381.7 456.54C380.95 455.59 379.54 454.81 379.1 453.66C378.41 451.88 378.98 449 379.53 447.25C382.81 445.5 392.46 440.84 395.75 440.98ZM409.25 441.48C410.33 442.4 411.42 443.33 412.5 444.25C411.58 445.34 410.67 446.43 409.75 447.52C408.58 446.7 407.42 445.88 406.25 445.06C405.25 445.79 404.25 446.52 403.25 447.26C401.58 447 400.77 446.13 399.86 444.75C400.49 442.94 401.38 442.2 403.25 441.75C404.08 442.5 404.92 443.25 405.75 444C406.92 443.16 408.08 442.32 409.25 441.48ZM197.4 442.75C198.16 444.15 198.67 452.74 198.53 454.75C198.33 457.63 196.89 461.95 198.75 464.45C200.71 465.43 203.11 465.41 204.86 463.98C204.86 462.41 204.86 460.83 204.86 459.25C206.63 458.01 208.63 457.45 210.75 457.98C211.23 460.21 210.91 462.77 212.02 464.75C216.93 465.64 216.53 460.57 218.73 457.75C220.52 457.79 222.25 458 223.75 458.98C223.7 461.05 222.67 463.25 223.6 465.25C227.08 465.8 226.81 459.94 228.25 457.9C229.7 457.63 231.04 457.97 232.3 458.75C233.27 461.11 232.25 463.59 233.65 465.86C234.42 465.86 235.2 465.86 235.97 465.86C237.87 462.43 235.47 459.68 234.84 456.25C235.97 454.69 237.89 453.86 239.75 453.53C241.01 456.9 242.96 461.04 242.53 464.73C241.67 472.26 235.16 473.91 229.25 470.26C225.81 471.55 222.94 473.72 219.75 470.53C214.22 471.44 213.65 473.41 207.75 470.37C203.88 472.25 196.27 473.45 193.28 469.47C190.11 465.25 192.27 456.35 191.73 451.25C191.48 448.99 190.95 446.87 191.25 444.57C192.9 443.4 195.46 442.27 197.4 442.75ZM181.75 444.24C183.4 444.73 184.69 446.33 185.65 447.75C184.52 448.89 183.38 450.03 182.25 451.17C181.08 450.2 179.9 449.22 178.73 448.25C179.06 446.44 180.3 445.32 181.75 444.24ZM225.75 446C227.33 446.51 228.06 447.77 229.75 448.11C230.75 447.42 231.75 446.72 232.75 446.03C233.72 446.94 234.68 447.84 235.65 448.75C234.76 450.25 233.94 451.15 232.25 451.52C231.42 450.76 230.59 450.01 229.76 449.25C228.59 450.09 227.42 450.92 226.25 451.76C224.8 451.33 223.67 450.2 223.24 448.75C224.08 447.83 224.91 446.91 225.75 446ZM117.25 447.84C119.28 448.27 120.73 449.72 121.14 451.75C120.01 452.72 118.88 453.68 117.75 454.65C116.58 453.52 115.41 452.38 114.24 451.25C114.69 449.74 115.95 448.73 117.25 447.84ZM322.03 472.25C321.17 473.62 320.52 475.11 319.69 476.46C317.2 480.54 310.8 483.86 306.25 484.11C304.98 482.38 304.04 479.65 305.05 477.75C307.97 475.64 312.82 476.06 315.11 472.75C313.4 471.38 310.35 471.93 308.28 470.49C302.89 466.74 305.06 456.89 310.38 454.14C315.03 451.74 319.26 456.67 320.9 460.34C321.64 461.97 321.63 463.5 322.75 465.01C324.73 465.01 326.71 465.01 328.69 465.01C326.39 462.16 323.39 462.83 323.74 457.85C324.15 451.88 330.07 445.85 335.63 451.12C340.44 455.68 341.59 467.67 334.46 470.7C330.46 472.39 326.16 471.48 322.03 472.25ZM173.02 450.25C173.58 454 173.66 461.89 175.55 464.75C178.15 465.48 181.45 465.46 183.24 463.25C182.28 461.08 181.32 458.92 180.36 456.75C181.81 455.17 184.07 453.93 186.25 453.74C189.41 456.7 190.4 466.52 186.97 469.69C183.93 472.5 178.61 472.37 174.75 471.98C172.86 471.8 171.52 470.37 169.74 469.92C166.32 469.06 162.68 470.1 159.75 467.49C154.48 462.78 161.1 455.36 165.75 453.55C166.02 452.79 166.29 452.02 166.56 451.25C168.87 450.62 170.57 449.75 173.02 450.25ZM106.75 454.52C107.74 456.71 106.5 458.78 105.44 460.75C100.64 461.71 98.5 460.42 95.55 465.25C97.93 468.4 103.02 467.23 105.72 471.01C106.89 472.64 106.7 473.86 106.32 475.73C105.11 481.68 98.45 484.04 93.11 484.75C87.33 485.52 79.12 482.68 77.13 476.66C76.12 473.63 76.51 470.79 76.91 467.74C77.22 465.33 77.92 461.94 79.75 460.23C81.32 460.9 82.9 461.58 84.47 462.25C83.88 465.99 81.17 470.86 83.16 474.6C84.92 477.91 92.72 477.39 95.75 477.01C96.72 476.88 99.35 476.51 99.96 475.62C100.42 474.95 99.8 475.51 100.11 474.75C96.67 472.64 91.66 473.77 90.12 468.66C89.61 466.96 90.26 465.04 90.7 463.42C92.65 456.26 99.67 452.35 106.75 454.52ZM126.7 484.25C126.1 482.25 125.49 480.25 124.89 478.25C128.2 475.83 132.86 476.32 135.49 472.75C133.34 470.85 128.06 472.48 126.26 467.52C124.16 461.72 128.97 450.8 136.46 454.3C139.61 455.77 141.41 460.07 142.17 463.15C144.24 471.59 141.65 476.84 134.54 481.29C132.23 482.74 129.5 484.13 126.7 484.25ZM286.75 455.7C286.08 457.42 285.42 459.14 284.75 460.85C281 461.26 276.06 460.87 275.11 465.75C277.7 468.02 282.67 467.25 284.7 470.54C290.43 479.85 276.16 485.73 268.89 484.75C257.55 483.21 253.74 475.3 257.07 464.74C257.57 463.16 257.82 461.61 258.73 460.25C260.62 460.37 262.77 461.48 264.02 462.75C263.28 465.96 260.65 470.55 262.31 473.96C264.34 478.11 270.62 477.29 274.25 477C275.78 476.88 278.85 476.5 279.75 475.16C276.66 471.82 269.92 474.51 269.25 467.13C269.19 466.41 269.58 465.6 269.74 464.9C270.87 459.75 273.87 455.4 279.26 454.04C281.77 453.41 285.32 453.3 286.75 455.7ZM439.25 453.71C440.5 454.92 440.76 456.5 441.18 458.13C442.28 462.33 443.53 468.33 438.49 470.72C435.29 472.23 432.21 471.8 428.75 472.19C427.4 473.61 426.79 475.38 425.73 477.01C423.83 479.92 420.27 483.62 416.75 484.27C415.46 482.76 414.16 481.26 412.87 479.75C415.49 475.39 422.5 475.03 422.24 468.25C422.14 465.83 420.42 463.68 420.1 461.25C421.82 460.42 423.53 459.59 425.25 458.76C427.43 460.24 427.25 462.84 429.05 464.75C431.58 465.49 434.46 465.37 436.25 463.32C435.29 461.13 434.33 458.94 433.36 456.75C434.86 455.15 437.07 454.14 439.25 453.71ZM330.25 455.06C329.07 455.63 328.78 456.06 328.26 457.25C329.59 458.9 331.41 459.31 333.45 458.75C333.12 456.81 332.24 455.49 330.25 455.06ZM408.75 458.33C408.36 455.28 403.92 453.02 403.95 457.75C405.5 458.86 407.17 459.33 408.75 458.33ZM121.27 458.75C122.48 460.3 122.57 461.83 122.94 463.75C123.41 466.26 124.29 468.8 123.7 471.42C122.41 477.15 117.24 482.03 112.25 484.64C110.57 483.44 108.82 481.18 108.1 479.25C111.08 476.51 117.91 473.77 117.67 468.75C117.55 466.31 115.94 463.69 115.5 461.25C116.99 459.84 119.18 458.79 121.27 458.75ZM154.3 458.75C155.69 460.63 155.97 462.95 156.32 465.27C157.54 473.39 153.27 481.42 145.25 484.26C143.87 482.59 142.49 480.92 141.11 479.25C143.85 476.08 151.3 473.81 150.71 468.25C150.47 465.99 148.53 463.95 148.25 461.73C149.69 459.94 151.99 458.91 154.3 458.75ZM300.25 458.71C301.97 460.27 301.58 461.6 302.15 463.65C302.85 466.2 303.49 468.98 302.93 471.73C302.04 476.09 296.17 483.21 291.75 484.25C290.33 482.75 288.9 481.25 287.48 479.75C289.44 476.18 296.05 474.93 296.9 469.73C297.38 466.79 295.18 464.15 294.92 461.25C296.32 459.91 298.35 459.09 300.25 458.71ZM363.25 458.74C364.72 460.12 364.49 461.92 364.94 463.74C365.55 466.21 366.3 468.77 365.7 471.42C364.46 476.93 359.34 482.42 354.25 484.52C352.75 483.4 350.32 480.79 350.25 478.98C353.29 476.16 359.31 474.12 359.74 469.13C359.93 467.04 357.83 463.27 357.15 461.25C358.93 460.09 361.12 458.94 363.25 458.74ZM166.75 459.39C165.08 460.22 163.91 460.88 163.55 462.75C164.62 463.04 165.68 463.33 166.75 463.61C168.08 462.18 168.04 460.85 166.75 459.39ZM133.25 460.12C131.86 461.27 131.15 461.92 131.11 463.75C132.83 465.2 134.69 465.27 136.83 464.75C136.88 462.4 135.38 460.95 133.25 460.12ZM312.75 460.29C311.39 461.32 310.83 462.08 310.53 463.75C312.1 465.04 314.07 465.3 315.99 464.75C316.11 462.38 314.96 461.07 312.75 460.29ZM206.25 473.87C207.93 474.44 209.18 475.65 209.97 477.25C208.9 478.34 207.82 479.43 206.75 480.52C205.12 479.87 204 478.68 203.03 477.25C204.1 476.12 205.18 475 206.25 473.87ZM435.75 473.87C436.75 474.83 437.76 475.79 438.76 476.75C438.27 478.4 436.67 479.69 435.25 480.65C434.11 479.52 432.97 478.38 431.83 477.25C432.64 475.51 433.86 474.24 435.75 473.87Z" fill="#febc0a" fill-rule="evenodd" stroke="#febc0a" stroke-width="0.25" stroke-linejoin="round"/>
<path d="M232.25 171.8C229.68 171.29 227.12 170.77 224.55 170.25C223.34 166.47 224.2 161.24 224.22 157.25C224.26 149.08 224.17 140.92 224.21 132.75C224.22 129.07 224.76 124.87 224.1 121.25C223.68 118.88 221.59 116.43 220.31 114.44C218.21 111.17 213.97 105.06 212.63 101.75C214.37 99.31 218.84 98.07 221.51 96.74C225.72 94.63 229.88 92.43 234.09 90.32C237.25 88.74 241.06 87.49 243.8 85.25C244.49 82.38 242.38 80.09 241.27 77.51C239.37 73.09 237.31 68.68 235.42 64.25C237.79 63.8 240.66 64.84 242.85 65.88C251.19 69.82 256.57 76.59 257.76 85.8C258.49 91.5 256.06 98.7 252.09 102.84C250.39 104.6 245.06 107.72 244.59 109.78C243.84 113.08 244.57 117.36 244.59 120.75C244.66 129.58 244.34 138.42 244.53 147.25C244.6 150.44 245.32 156.24 244.41 159.15C243.95 160.62 241.93 162.06 240.88 163.13C238.13 165.93 235.58 169.73 232.25 171.8ZM218.25 74.68C220.56 79.7 222.87 84.73 225.18 89.75C223.9 91.68 217.62 94.45 215.25 95.14C213.45 92.13 215.35 82.88 216.13 79.28C216.48 77.68 216.83 75.5 218.25 74.68ZM276.25 76.51C277.74 76.28 278.84 76.16 280.25 76.76C281.1 78.49 280.83 80.26 281.21 82.12C281.96 85.75 283.51 89.95 282.85 93.72C282.47 95.86 280.98 97.44 280.8 99.75C280.48 104.03 280.77 108.46 280.81 112.75C280.89 120.08 280.76 127.42 280.79 134.75C280.81 139.42 279.91 148.66 281.13 152.75C283.27 153.21 285.7 152.42 287.52 153.75C287.81 156.62 285.73 157.32 285.17 159.84C284.68 162.05 285.29 164.39 284.75 166.61C283.05 167.19 280.17 168.16 278.38 167.79C277.08 167.52 271.86 162.73 271.28 161.49C270.9 160.69 271.1 159.74 270.8 158.9C269.79 156.12 267.37 156.81 268.75 153C270.8 153 272.85 153 274.9 153C276.48 149.5 275.55 140.93 275.59 136.75C275.68 127.95 275.8 119.14 275.75 110.35C275.73 106.83 276.37 102.76 275.86 99.31C275.55 97.28 273.74 95.53 273.25 93.56C272.76 91.57 273.6 89.64 273.96 87.74C274.66 84.04 274.57 79.94 276.25 76.51ZM324.75 100.02C326.37 101.88 325.83 104.39 325.84 106.75C325.85 111.34 325.45 116.22 326.13 120.75C327.17 121.41 328.21 122.06 329.25 122.72C328.83 127.67 327.21 132.97 326.06 137.77C324.85 142.88 324.28 148.18 323.02 153.27C322.46 155.54 322.31 161.54 320.84 163.09C319.66 164.34 317.32 164.15 315.75 164.43C311.12 165.27 305.94 166.68 301.25 166.59C299.74 163.47 300.28 155.15 300.22 151.25C300.05 140.66 298.48 130.31 298.05 119.75C297.94 117.2 297.03 109.21 297.79 107.07C298.07 106.27 298.59 105.94 299.25 105.47C300.46 105.96 301.58 107.06 302.89 107.26C306.36 107.78 309.91 103.42 313.13 102.35C315.34 101.62 317.84 102.28 320.09 101.76C321.83 101.36 322.95 100.19 324.75 100.02ZM318.8 110.07C316.98 110.57 315.35 112.09 313.59 112.79C310.11 114.18 303.86 113.92 303.49 118.75C303.41 119.85 303.62 121.09 304.25 122.01C305.72 124.14 308.17 123.57 310.26 122.98C314.45 121.8 319.67 119.17 322.19 115.42C323.98 112.74 322.28 109.12 318.8 110.07ZM179.03 133.75C176.58 134.48 168.13 134.41 165.75 133.18C165.21 131.42 165.76 129.14 164.76 127.47C163.27 124.94 159.62 125.34 157.27 125.69C148.63 126.99 146.79 130.15 139.75 133.76C139.09 133.09 138.43 132.42 137.77 131.75C138.58 129.42 140.4 127.61 141.86 125.62C150.36 114.1 158.64 111.05 172.73 111.25C174.89 111.28 177.38 110.85 179.5 111.27C182.67 111.9 184.23 115.22 187.27 115.98C188.34 116.25 189.58 116.25 190.61 115.81C192.24 115.13 192.6 113.13 193.94 112.2C196.21 110.63 200.92 111.66 201.75 114.47C202.27 116.25 201.94 118.42 201.96 120.25C201.97 121.75 202.02 123.25 201.98 124.75C201.88 129.63 197.3 131.73 193.25 129.03C191.78 128.06 191.95 125.92 190.05 125.25C188.43 124.67 185.99 124.68 184.35 125.16C178.72 126.79 180.54 129.88 179.03 133.75ZM373.76 118.06C374.93 123.65 373.96 132.61 373.76 138.52C373.68 140.73 374.64 143.87 373.59 145.85C372.4 148.07 368.59 148.98 366.59 150.34C363.25 152.62 362.4 155.22 360.75 158.69C358.89 159.05 357.03 159.4 355.17 159.75C354.48 158.26 354.44 156.56 353.67 155.07C351.35 150.56 346.28 148.82 342.25 146.4C340.95 142.45 342.14 134.3 341.98 129.75C341.85 126.07 341.01 121.63 341.95 118.06C352.56 118.06 363.16 118.06 373.76 118.06ZM178.75 134.92C179.95 136.77 179.5 139.1 179.46 141.25C179.37 145.61 180.36 155.67 179.18 159.25C176.56 160.04 168.05 160.12 165.45 159.25C164.58 157.06 165.07 154.13 165.06 151.75C165.03 146.5 164.3 140.54 165.25 135.41C166.72 134.8 177.16 134.49 178.75 134.92ZM257.75 149.84C278.42 172.05 299.08 194.26 319.75 216.47C322.55 214.96 329.83 206.05 332.43 203.18C340.79 193.9 349.84 185.16 357.92 175.66C360.82 172.24 363.87 168.94 366.98 165.72C368.48 164.17 369.8 161.99 371.75 161.13C374.26 162.82 375.97 165.52 378.08 167.65C381.98 171.57 385.8 175.7 389.33 179.93C394.68 186.33 400.87 192.1 406.48 198.28C412.74 205.19 418.89 212.2 425.3 218.96C429.93 223.84 434.35 228.86 438.99 233.75C440.7 235.55 443.7 237.88 443.98 240.25C438.09 240.95 431.71 240.33 425.75 240.33C423.72 240.32 420.65 240.94 418.79 239.98C417.09 239.09 415.89 237 414.63 235.61C412.35 233.08 409.93 230.63 407.63 228.11C400.45 220.28 393.13 212.61 385.98 204.76C383.46 201.99 380.72 199.31 378.29 196.46C376.35 194.19 374.27 191.14 371.75 189.54C369.16 190.84 363.34 198.22 361.03 200.77C355.02 207.4 349.01 214.12 342.77 220.53C340.39 222.98 334.51 228.45 333.24 231.25C349.71 249.25 366.17 267.25 382.64 285.25C380.71 286.71 372.64 285.91 369.75 285.9C365.25 285.9 360.75 285.9 356.25 285.9C354.24 285.89 351.4 286.42 349.49 285.72C348.04 285.2 346.74 283.12 345.73 282.01C343.13 279.12 340.48 276.29 337.82 273.43C319.48 253.77 301.33 233.9 283.17 214.09C277.28 207.65 271.4 201.19 265.47 194.78C263.14 192.26 260.64 188.49 257.75 186.7C254.94 187.88 252.91 191.4 250.81 193.57C244.92 199.68 239.32 206.09 233.58 212.34C221.21 225.8 208.56 238.99 196.48 252.72C190.32 259.71 183.59 266.19 177.46 273.22C174.76 276.31 171.97 279.43 169.06 282.32C168.06 283.31 166.91 285.26 165.55 285.75C163.92 286.34 161.48 285.9 159.75 285.9C155.25 285.9 150.75 285.87 146.25 285.87C143.32 285.87 134.29 286.75 132.45 285.25C148.88 267.25 165.32 249.25 181.75 231.25C176.61 225.02 170.75 219.41 165.29 213.47C161.53 209.38 157.96 205.15 154.13 201.12C151.57 198.42 145.68 190.71 142.75 189.51C137.68 193.84 133.36 199.68 128.86 204.62C122.75 211.32 116.22 217.69 110.38 224.63C107.2 228.4 103.66 231.93 100.27 235.52C98.93 236.94 97.52 239.11 95.77 240.04C94.11 240.93 91.09 240.33 89.25 240.32C85.25 240.27 81.25 240.36 77.25 240.33C75.02 240.31 72.31 240.76 70.35 239.75C71.83 237.6 73.95 235.91 75.67 233.93C79.93 229.04 84.54 224.46 88.84 219.6C99.62 207.41 110.81 195.52 121.93 183.66C127.18 178.08 132.19 172.26 137.47 166.72C139.13 164.98 141.05 161.98 143.25 161.13C148.45 165.06 152.5 171.01 156.98 175.77C164.73 183.99 172.4 192.32 180.08 200.66C183.6 204.47 186.97 208.44 190.56 212.19C192.05 213.74 193.31 215.73 195.25 216.63C197.58 214.99 199.29 212.55 201.23 210.47C204.37 207.11 207.45 203.71 210.53 200.28C220.99 188.61 231.92 177.3 242.54 165.78C246.21 161.79 249.83 157.74 253.53 153.77C254.87 152.33 255.97 150.67 257.75 149.84ZM242.47 368.25C244.51 374.29 243.66 381.93 243.5 388.25C243.42 391.18 242.73 395.27 244.25 397.85C248.59 399.56 250.54 395.68 252.29 392.53C254.96 387.7 258.52 382.6 264.75 383.96C266.26 384.29 267.22 384.82 268.36 385.88C269.72 387.16 270.66 388.63 271.44 390.33C272.53 392.71 272.63 395.29 273.25 397.8C275.38 398.41 277.46 398.42 279.58 397.75C278.25 393.9 274.97 394.73 275.16 389.75C275.2 388.91 275.09 387.98 275.4 387.19C276.26 385.05 279.82 383.87 281.75 383.03C287.89 380.34 299.19 381.02 301.96 388.28C303.69 392.84 299.28 394.39 298.75 397.81C300.11 398.39 301.3 398.27 302.76 398.21C309.83 397.97 309.36 391.8 313.19 387.42C316.6 383.53 321.98 382.62 325.95 386.3C330.85 390.83 332.85 406.61 323.73 407.54C319.73 407.95 315.86 405.05 312.25 403.87C310.84 404.76 309.56 406.09 307.98 406.71C303.77 408.36 298.59 407.77 294.27 406.91C292.57 406.57 291.05 405.04 289.25 405.03C287.61 405.02 286.14 406.35 284.59 406.76C282.77 407.24 275.74 408.11 274.1 407.69C272.51 407.29 271.22 406.27 269.75 405.64C268.74 406.12 267.8 407.16 266.66 407.36C262.47 408.08 258.53 405.06 254.75 404.01C252.25 405.41 250.27 407.03 247.39 407.69C245.93 408.03 244.59 407.44 243.18 407.16C232.17 405 234.96 392.12 234.86 383.75C234.82 380.21 233.55 373.18 234.4 370.25C236.71 369.27 240.02 367.89 242.47 368.25ZM200.75 378.17C202.66 378.76 203.9 380.53 205.39 381.84C211.39 387.1 219.22 399.79 209.35 405.6C203.16 409.25 193.06 407.19 191.33 399.26C190.35 394.79 192.88 389.77 196.06 386.75C196 385.99 195.8 385.03 195.98 384.3C196.44 382.41 199.2 379.23 200.75 378.17ZM227.75 389.4C229.07 391.23 229.59 393.53 230.11 395.7C232.4 405.34 230.4 413.06 222.64 419.4C220.53 421.12 218.4 423.08 215.75 423.83C213.84 422.44 211 419.08 210.67 416.75C214.5 413.81 223.59 409.16 223.28 403.35C223.09 399.78 220.56 396.67 220.13 393.25C221.67 391.23 225.4 390.27 227.75 389.4ZM293.94 390.75C291.76 388.54 287.71 389.48 284.94 390.25C285.43 392.39 287.46 393.68 289.25 394.92C291.1 394.15 292.89 392.48 293.94 390.75ZM201.75 390.88C199.94 392.17 198.21 394.61 198.25 396.91C200.16 399.28 203.7 398.99 206.25 397.79C206.99 395.35 203.96 391.71 201.75 390.88ZM262.75 392.43C260.58 392.91 259.82 394.14 259.38 396.25C261.19 397.67 263.46 398.23 265.75 398.3C266.27 396.15 264.75 393.33 262.75 392.43ZM319.25 392.41C317.76 393.41 316.95 394.52 316.54 396.25C317.97 398.09 321.07 399.16 323.33 398.75C324.52 395.6 322.55 392.55 319.25 392.41Z" fill="#0a1d17" fill-rule="evenodd" stroke="#0a1d17" stroke-width="0.25" stroke-linejoin="round"/>
</svg>